<?xml version="1.0" standalone="no"?>
<!DOCTYPE svg PUBLIC "-//W3C//DTD SVG 20010904//EN"
 "http://www.w3.org/TR/2001/REC-SVG-20010904/DTD/svg10.dtd">
<svg version="1.0" xmlns="http://www.w3.org/2000/svg"
 width="426.000000pt" height="402.000000pt" viewBox="0 0 426.000000 202.000000"
 preserveAspectRatio="xMidYMid meet">
<g transform="translate(0.000000,402.000000) scale(0.100000,-0.100000)"
fill="#000000" stroke="none">
<path style="opacity:0.993" fill="#0081d1" d="M1470 3387 c-201 -101 -363 -219 -532 -390 -60 -59 -108 -111 -108
-116 0 -5 39 -50 86 -100 96 -102 247 -227 369 -307 71 -46 275 -154 291 -154
3 0 -16 24 -43 54 -66 75 -110 151 -144 248 -90 262 -39 538 137 752 30 36 53
66 52 66 -2 0 -50 -24 -108 -53z"/>
<path style="opacity:0.993" fill="#0081d1" d="M2698 3382 c101 -117 161 -254 182 -414 28 -206 -46 -441 -186 -596
-53 -60 -49 -60 87 9 201 100 474 313 591 462 l30 37 -65 73 c-158 176 -438
381 -640 466 l-48 21 49 -58z"/>
<path style="opacity:0.993" fill="#F10D0D" d="M2051 3164 c-25 -21 -31 -34 -31 -64 0 -89 91 -131 159 -74 25 21 31
34 31 64 0 89 -91 131 -159 74z"/>
<path style="opacity:0.993" fill="#F10D0D" d="M1795 3045 c-41 -40 -33 -105 16 -130 42 -22 77 -18 104 11 76 82
-42 198 -120 119z"/>
<path style="opacity:0.993" fill="#F10D0D" d="M2315 3045 c-37 -36 -34 -86 6 -119 48 -40 99 -32 127 21 46 86 -64
167 -133 98z"/>
<path style="opacity:0.993" fill="#F10D0D" d="M2050 2923 c-37 -14 -74 -49 -91 -87 -16 -34 -19 -67 -19 -202 l0
-162 65 -17 c70 -19 177 -17 248 6 l37 12 0 162 c0 150 -2 165 -23 206 -25 46
-77 89 -108 89 -23 0 -24 -11 -4 -163 16 -117 16 -117 -7 -147 -27 -37 -39
-38 -65 -1 -21 28 -21 28 -4 170 18 150 18 151 -29 134z"/>
<path style="opacity:0.993" fill="#F10D0D" d="M1783 2829 c-24 -12 -52 -36 -64 -56 l-22 -35 24 -51 c23 -50 137
-177 159 -177 6 0 10 46 10 123 1 67 5 141 9 164 7 37 6 42 -13 47 -37 10 -60
7 -103 -15z"/>
<path style="opacity:0.993" fill="#F10D0D" d="M2339 2844 c-13 -4 -15 -12 -8 -47 4 -23 8 -97 9 -164 0 -81 4 -123
11 -123 22 0 126 117 154 173 25 53 27 60 14 84 -27 51 -125 93 -180 77z"/>
<path style="opacity:0.993" fill="#0081d1" d="M752 1731 c-100 -35 -148 -105 -139 -203 7 -84 41 -131 120 -169 34
-16 68 -29 75 -29 19 0 73 -29 100 -53 28 -26 29 -70 2 -97 -40 -40 -167 -19
-233 38 -17 15 -21 13 -64 -31 l-47 -46 24 -26 c13 -14 53 -40 88 -57 52 -26
79 -32 145 -36 72 -3 88 -1 127 20 53 28 105 100 115 157 18 107 -61 206 -206
258 -122 45 -153 100 -77 139 40 20 97 12 156 -22 24 -14 45 -24 47 -22 11 12
65 103 65 110 0 4 -6 8 -13 8 -8 0 -22 9 -32 20 -20 22 -89 46 -155 55 -31 3
-62 -1 -98 -14z"/>
<path style="opacity:0.993" fill="#0081d1" d="M1473 1740 c-96 -20 -203 -102 -248 -191 -48 -93 -50 -231 -5 -323
32 -68 92 -129 162 -167 60 -32 68 -34 164 -34 92 0 105 3 159 30 32 17 60 35
62 42 3 7 -14 32 -37 57 l-41 45 -42 -20 c-147 -66 -311 41 -308 202 1 96 38
157 119 198 49 25 136 28 187 6 35 -14 35 -14 75 28 46 49 48 61 17 81 -63 42
-185 63 -264 46z"/>
<path style="opacity:0.993" fill="#0081d1" d="M1900 1385 l0 -355 70 0 70 0 0 145 0 145 36 0 35 0 69 -145 69 -145
71 0 c38 0 70 2 70 4 0 2 -29 65 -65 141 -36 75 -65 142 -65 147 0 6 17 26 39
44 49 42 72 91 73 154 0 71 -17 113 -66 158 -58 53 -94 62 -263 62 l-143 0 0
-355z m314 194 c31 -25 34 -66 7 -100 -17 -21 -30 -24 -100 -27 l-81 -4 0 76
0 76 74 0 c59 0 78 -4 100 -21z"/>
<path style="opacity:0.993" fill="#0081d1" d="M2507 1733 c-4 -3 -7 -163 -7 -355 l0 -348 235 0 235 0 0 70 0 70
-165 0 -165 0 0 80 0 80 135 0 135 0 0 65 0 65 -135 0 -135 0 0 70 0 70 165 0
165 0 0 70 0 70 -228 0 c-126 0 -232 -3 -235 -7z"/>
<path style="opacity:0.993" fill="#0081d1" d="M3150 1367 l0 -356 73 -3 c182 -7 280 18 363 94 182 167 132 481 -92
585 -54 25 -72 28 -201 31 l-143 4 0 -355z m281 209 c35 -15 109 -86 127 -121
73 -149 -62 -334 -235 -323 l-48 3 -3 219 c-2 162 1 222 10 233 15 18 95 12
149 -11z"/>
</g>
</svg>
