<?xml version="1.0" encoding="UTF-8"?>
<!DOCTYPE svg PUBLIC "-//W3C//DTD SVG 1.1//EN" "http://www.w3.org/Graphics/SVG/1.1/DTD/svg11.dtd">
<svg xmlns="http://www.w3.org/2000/svg" version="1.1" width="2429px" height="2006px" style="shape-rendering:geometricPrecision; text-rendering:geometricPrecision; image-rendering:optimizeQuality; fill-rule:evenodd; clip-rule:evenodd" xmlns:xlink="http://www.w3.org/1999/xlink">
<g><path style="opacity:0.993" fill="#00b0ff" d="M 1169.5,-0.5 C 1191.83,-0.5 1214.17,-0.5 1236.5,-0.5C 1260.18,1.06202 1284.02,3.72868 1308,7.5C 1352.37,160.214 1344.04,309.548 1283,455.5C 1257.16,513.166 1224.16,566.5 1184,615.5C 1182.94,616.899 1181.61,617.899 1180,618.5C 1091.22,484.242 1058.22,336.242 1081,174.5C 1087.35,132.048 1096.68,90.0476 1109,48.5C 1113.99,33.5444 1118.82,18.5444 1123.5,3.5C 1138.98,2.14263 1154.31,0.809296 1169.5,-0.5 Z"/></g>
<g><path style="opacity:0.993" fill="#00b0ff" d="M 1450.5,43.5 C 1518.56,67.4417 1581.06,101.442 1638,145.5C 1702.57,406.536 1638.4,629.37 1445.5,814C 1436.66,822.503 1427.49,830.67 1418,838.5C 1360.7,807.084 1308.86,768.251 1262.5,722C 1420.93,541.628 1486.1,331.128 1458,90.5C 1455.42,74.8357 1452.92,59.1691 1450.5,43.5 Z"/></g>
<g><path style="opacity:0.993" fill="#0081d1" d="M 955.5,113.5 C 956.5,113.5 957.5,113.5 958.5,113.5C 918.376,342.214 966.542,549.214 1103,734.5C 1235.21,903.849 1407.38,1005.02 1619.5,1038C 1696.7,1047.53 1773.7,1046.36 1850.5,1034.5C 1847.87,1042.77 1844.37,1050.77 1840,1058.5C 1698.24,1157.02 1541.41,1194.52 1369.5,1171C 1184.8,1139.98 1037.63,1048.48 928,896.5C 833.016,755.504 796.183,600.171 817.5,430.5C 836.021,312.515 882.021,206.848 955.5,113.5 Z"/></g>
<g><path style="opacity:0.993" fill="#0081d1" d="M 781.5,136.5 C 782.675,136.281 783.675,136.614 784.5,137.5C 665.906,350.689 649.073,572.356 734,802.5C 818.154,1008.32 961.654,1156.82 1164.5,1248C 1320.52,1311.89 1481.19,1324.39 1646.5,1285.5C 1646.72,1286.68 1646.39,1287.68 1645.5,1288.5C 1498,1400.51 1331,1450.01 1144.5,1437C 963.379,1419.98 809.712,1346.15 683.5,1215.5C 674.836,1203.51 666.17,1191.51 657.5,1179.5C 637.489,1154.17 616.989,1129.17 596,1104.5C 495.408,940.485 463.074,763.485 499,573.5C 539.172,392.847 633.339,247.18 781.5,136.5 Z"/></g>
<g><path style="opacity:0.991" fill="#00b0ff" d="M 1790.5,303.5 C 1793.75,305.927 1796.59,308.927 1799,312.5C 1903.75,469.035 1942.75,641.368 1916,829.5C 1912.23,851.203 1907.9,872.536 1903,893.5C 1826.63,912.554 1749.13,919.388 1670.5,914C 1630.83,909.997 1591.83,902.664 1553.5,892C 1552.04,891.577 1551.54,890.744 1552,889.5C 1686.57,758.295 1764.9,598.962 1787,411.5C 1790.11,375.57 1791.27,339.57 1790.5,303.5 Z"/></g>
<g><path style="opacity:0.982" fill="#0082d1" d="M 1219.5,2005.5 C 1207.17,2005.5 1194.83,2005.5 1182.5,2005.5C 1129.67,1998.19 1092.83,1969.85 1072,1920.5C 1057.41,1881.45 1052.08,1841.11 1056,1799.5C 1057.83,1760.32 1070.17,1724.99 1093,1693.5C 1117.24,1665.13 1148.07,1648.96 1185.5,1645C 1211.88,1642.17 1237.54,1645.17 1262.5,1654C 1293.83,1667.5 1316.83,1689.66 1331.5,1720.5C 1320.12,1727.71 1308.62,1734.71 1297,1741.5C 1272.79,1695.14 1234.62,1675.98 1182.5,1684C 1137.2,1695.97 1110.7,1725.13 1103,1771.5C 1100.08,1804.8 1099.75,1838.13 1102,1871.5C 1104.83,1901.33 1117.33,1926.16 1139.5,1946C 1166.89,1965.43 1197.22,1972.09 1230.5,1966C 1259.39,1961.42 1279.89,1945.92 1292,1919.5C 1293.84,1913.62 1295.18,1907.62 1296,1901.5C 1296.5,1886.5 1296.67,1871.5 1296.5,1856.5C 1270.83,1856.5 1245.17,1856.5 1219.5,1856.5C 1219.5,1844.17 1219.5,1831.83 1219.5,1819.5C 1259.17,1819.5 1298.83,1819.5 1338.5,1819.5C 1338.5,1879.5 1338.5,1939.5 1338.5,1999.5C 1325.17,1999.5 1311.83,1999.5 1298.5,1999.5C 1298.67,1982.83 1298.5,1966.16 1298,1949.5C 1291.98,1967.51 1280.82,1981.35 1264.5,1991C 1250.33,1998.79 1235.33,2003.62 1219.5,2005.5 Z"/></g>
<g><path style="opacity:0.988" fill="#0081d1" d="M -0.5,1650.5 C 69.1667,1650.5 138.833,1650.5 208.5,1650.5C 208.5,1662.83 208.5,1675.17 208.5,1687.5C 153.167,1687.5 97.8333,1687.5 42.5,1687.5C 42.5,1726.5 42.5,1765.5 42.5,1804.5C 92.8333,1804.5 143.167,1804.5 193.5,1804.5C 193.5,1816.83 193.5,1829.17 193.5,1841.5C 143.167,1841.5 92.8333,1841.5 42.5,1841.5C 42.5,1894.17 42.5,1946.83 42.5,1999.5C 28.1667,1999.5 13.8333,1999.5 -0.5,1999.5C -0.5,1883.17 -0.5,1766.83 -0.5,1650.5 Z"/></g>
<g><path style="opacity:1" fill="#0081d1" d="M 298.5,1650.5 C 345.167,1650.5 391.833,1650.5 438.5,1650.5C 438.5,1662.17 438.5,1673.83 438.5,1685.5C 422.167,1685.5 405.833,1685.5 389.5,1685.5C 389.5,1778.5 389.5,1871.5 389.5,1964.5C 405.833,1964.5 422.167,1964.5 438.5,1964.5C 438.5,1976.17 438.5,1987.83 438.5,1999.5C 391.833,1999.5 345.167,1999.5 298.5,1999.5C 298.5,1987.83 298.5,1976.17 298.5,1964.5C 314.833,1964.5 331.167,1964.5 347.5,1964.5C 347.5,1871.5 347.5,1778.5 347.5,1685.5C 331.167,1685.5 314.833,1685.5 298.5,1685.5C 298.5,1673.83 298.5,1662.17 298.5,1650.5 Z"/></g>
<g><path style="opacity:0.984" fill="#0081d1" d="M 550.5,1650.5 C 564.833,1650.5 579.167,1650.5 593.5,1650.5C 593.5,1754.5 593.5,1858.5 593.5,1962.5C 642.833,1962.5 692.167,1962.5 741.5,1962.5C 741.5,1974.83 741.5,1987.17 741.5,1999.5C 677.833,1999.5 614.167,1999.5 550.5,1999.5C 550.5,1883.17 550.5,1766.83 550.5,1650.5 Z"/></g>
<g><path style="opacity:1" fill="#0081d1" d="M 820.5,1650.5 C 867.167,1650.5 913.833,1650.5 960.5,1650.5C 960.5,1662.17 960.5,1673.83 960.5,1685.5C 944.167,1685.5 927.833,1685.5 911.5,1685.5C 911.5,1778.5 911.5,1871.5 911.5,1964.5C 927.833,1964.5 944.167,1964.5 960.5,1964.5C 960.5,1976.17 960.5,1987.83 960.5,1999.5C 913.833,1999.5 867.167,1999.5 820.5,1999.5C 820.5,1987.83 820.5,1976.17 820.5,1964.5C 836.833,1964.5 853.167,1964.5 869.5,1964.5C 869.5,1871.5 869.5,1778.5 869.5,1685.5C 853.167,1685.5 836.833,1685.5 820.5,1685.5C 820.5,1673.83 820.5,1662.17 820.5,1650.5 Z"/></g>
<g><path style="opacity:0.985" fill="#0082d1" d="M 1455.5,1650.5 C 1507.83,1650.33 1560.17,1650.5 1612.5,1651C 1659.42,1657.59 1685.92,1684.42 1692,1731.5C 1694.47,1753.4 1692.14,1774.74 1685,1795.5C 1672.99,1822.6 1652.49,1839.43 1623.5,1846C 1649.71,1896.91 1676.04,1947.75 1702.5,1998.5C 1686.27,1999.82 1670.1,1999.82 1654,1998.5C 1628.91,1949.32 1604.08,1899.99 1579.5,1850.5C 1552.51,1849.5 1525.51,1849.17 1498.5,1849.5C 1498.5,1899.5 1498.5,1949.5 1498.5,1999.5C 1484.17,1999.5 1469.83,1999.5 1455.5,1999.5C 1455.5,1883.17 1455.5,1766.83 1455.5,1650.5 Z M 1498.5,1687.5 C 1534.85,1687.09 1571.19,1687.59 1607.5,1689C 1628.8,1692.3 1641.63,1704.47 1646,1725.5C 1648,1741.83 1648,1758.17 1646,1774.5C 1641.63,1795.53 1628.8,1807.7 1607.5,1811C 1571.19,1812.41 1534.85,1812.91 1498.5,1812.5C 1498.5,1770.83 1498.5,1729.17 1498.5,1687.5 Z"/></g>
<g><path style="opacity:0.983" fill="#00b1ff" d="M 1898.5,1650.5 C 1916.83,1650.5 1935.17,1650.5 1953.5,1650.5C 1994.03,1766.76 2034.36,1883.09 2074.5,1999.5C 2059.5,1999.5 2044.5,1999.5 2029.5,1999.5C 2018.17,1965.17 2006.83,1930.83 1995.5,1896.5C 1948.5,1896.5 1901.5,1896.5 1854.5,1896.5C 1843.17,1930.83 1831.83,1965.17 1820.5,1999.5C 1805.82,1999.83 1791.15,1999.5 1776.5,1998.5C 1817.37,1882.55 1858.04,1766.55 1898.5,1650.5 Z M 1923.5,1689.5 C 1924.38,1689.37 1925.04,1689.7 1925.5,1690.5C 1945.27,1746.65 1964.94,1802.81 1984.5,1859C 1944.83,1859.5 1905.17,1859.67 1865.5,1859.5C 1885.03,1802.91 1904.36,1746.24 1923.5,1689.5 Z"/></g>
<g><path style="opacity:0.986" fill="#00b1ff" d="M 2428.5,1650.5 C 2428.5,1766.83 2428.5,1883.17 2428.5,1999.5C 2411.82,1999.83 2395.15,1999.5 2378.5,1998.5C 2336,1927.5 2293.5,1856.5 2251,1785.5C 2237.33,1760.17 2223.67,1734.83 2210,1709.5C 2209.5,1806.17 2209.33,1902.83 2209.5,1999.5C 2195.5,1999.5 2181.5,1999.5 2167.5,1999.5C 2167.5,1883.17 2167.5,1766.83 2167.5,1650.5C 2184.41,1650.17 2201.24,1650.51 2218,1651.5C 2259.08,1720.67 2300.42,1789.67 2342,1858.5C 2356.6,1886.09 2371.6,1913.42 2387,1940.5C 2387.5,1843.83 2387.67,1747.17 2387.5,1650.5C 2401.17,1650.5 2414.83,1650.5 2428.5,1650.5 Z"/></g>
</svg>
