<svg width="144" height="144" viewBox="0 0 144 144" fill="none" xmlns="http://www.w3.org/2000/svg">
<rect width="144" height="144" rx="26" fill="#001BDA"/>
<path fill-rule="evenodd" clip-rule="evenodd" d="M39.1285 45.6677C33.3439 52.8795 29.8836 62.0356 29.8836 72C29.8836 81.9644 33.3439 91.1205 39.1285 98.3323V45.6677ZM45.0121 39.6653V104.335C47.7635 106.634 50.8128 108.588 54.0936 110.131V33.8687C50.8128 35.412 47.7635 37.3664 45.0121 39.6653ZM59.9772 31.6245V112.375C62.885 113.24 65.9244 113.799 69.0581 114.015V29.9847C65.9244 30.2009 62.885 30.7599 59.9772 31.6245ZM74.9416 29.9847V39.2032H98.4251C91.9132 33.9498 83.8046 30.5962 74.9416 29.9847ZM104.397 45.0867H74.9416V54.174H110.169C108.634 50.8922 106.688 47.8411 104.397 45.0867ZM112.399 60.0575H74.9416V69.1389H114.021C113.811 66.0055 113.258 62.966 112.399 60.0575ZM114.01 75.0224H74.9416V114.015C78.2279 113.789 81.4105 113.185 84.4464 112.247V84.4698H112.24C113.174 81.4517 113.778 78.2885 114.01 75.0224ZM109.918 90.3534H90.3299V95.7794H96.2136V101.663H90.3299V109.929C98.8585 105.8 105.783 98.879 109.918 90.3534ZM24 72C24 45.4903 45.4903 24 72 24C98.5097 24 120 45.4903 120 72C120 98.5097 98.5097 120 72 120C45.4903 120 24 98.5097 24 72Z" fill="white"/>
</svg>
